<svg xmlns="http://www.w3.org/2000/svg" width="480pt" height="290pt" viewBox="0 0 480 290" version="1.1" xmlns:xlink="http://www.w3.org/1999/xlink">
  <g id="surface2" transform="matrix(0.9764309764309764,0,0,0.9764309764309764,5.656565656565647,67.86195286195287)" data-tpl_matrix="1,0,0,1,-0.5,-0.5">
    <path style="stroke:none;fill-rule:evenodd;fill:rgb(70.588235%,70.588235%,70.588235%);fill-opacity:1" d="M 242.800781 66.148438 C 214.234375 66.882812 190.433594 76.75 171.398438 95.75 C 152.398438 114.785156 142.535156 138.582031 141.800781 167.148438 L 142.601562 167.148438 C 143.332031 138.816406 153.132812 115.214844 172 96.351562 C 190.867188 77.484375 214.464844 67.683594 242.800781 66.949219 C 271.167969 67.683594 294.785156 77.484375 313.648438 96.351562 C 332.515625 115.214844 342.300781 138.816406 343 167.148438 L 343.800781 167.148438 C 343.066406 138.582031 333.199219 114.785156 314.199219 95.75 C 295.167969 76.75 271.367188 66.882812 242.800781 66.148438 "/>
    <path style="stroke:none;fill-rule:evenodd;fill:rgb(70.588235%,70.588235%,70.588235%);fill-opacity:1" d="M 242.800781 54.851562 C 211.035156 55.648438 184.582031 66.632812 163.449219 87.800781 C 142.285156 108.933594 131.300781 135.382812 130.5 167.148438 L 131.300781 167.148438 C 132.101562 135.617188 143 109.351562 164 88.351562 C 185 67.351562 211.265625 56.449219 242.800781 55.648438 C 274.332031 56.449219 300.601562 67.351562 321.601562 88.351562 C 342.601562 109.351562 353.5 135.617188 354.300781 167.148438 L 355.101562 167.148438 C 354.300781 135.382812 343.316406 108.933594 322.148438 87.800781 C 301.015625 66.632812 274.566406 55.648438 242.800781 54.851562 "/>
    <path style="stroke:none;fill-rule:evenodd;fill:rgb(70.588235%,70.588235%,70.588235%);fill-opacity:1" d="M 242.851562 43.601562 C 207.882812 44.5 178.765625 56.582031 155.5 79.851562 C 132.234375 103.117188 120.148438 132.234375 119.25 167.199219 L 120.050781 167.199219 C 120.949219 132.464844 132.949219 103.535156 156.050781 80.398438 C 179.183594 57.300781 208.117188 45.300781 242.851562 44.398438 C 277.582031 45.300781 306.5 57.300781 329.601562 80.398438 C 352.734375 103.535156 364.734375 132.464844 365.601562 167.199219 L 366.398438 167.199219 C 365.5 132.234375 353.417969 103.117188 330.148438 79.851562 C 306.882812 56.582031 277.785156 44.5 242.851562 43.601562 "/>
    <path style="stroke:none;fill-rule:evenodd;fill:rgb(70.588235%,70.588235%,70.588235%);fill-opacity:1" d="M 242.800781 32.300781 C 204.667969 33.265625 172.898438 46.449219 147.5 71.851562 C 122.101562 97.25 108.917969 129.015625 107.949219 167.148438 L 108.75 167.148438 C 109.714844 129.214844 122.816406 97.632812 148.050781 72.398438 C 173.285156 47.167969 204.867188 34.066406 242.800781 33.101562 C 280.734375 34.066406 312.316406 47.167969 337.550781 72.398438 C 362.816406 97.632812 375.933594 129.214844 376.898438 167.148438 L 377.699219 167.148438 C 376.734375 129.015625 363.550781 97.25 338.148438 71.851562 C 312.75 46.449219 280.964844 33.265625 242.800781 32.300781 "/>
    <path style="stroke:none;fill-rule:evenodd;fill:rgb(70.588235%,70.588235%,70.588235%);fill-opacity:1" d="M 97.449219 167.148438 C 98.484375 126.015625 112.683594 91.765625 140.050781 64.398438 C 167.417969 37.035156 201.667969 22.832031 242.800781 21.800781 C 283.933594 22.832031 318.183594 37.035156 345.550781 64.398438 C 372.917969 91.765625 387.117188 126.015625 388.148438 167.148438 L 388.949219 167.148438 C 387.882812 125.816406 373.601562 91.382812 346.101562 63.851562 C 318.566406 36.351562 284.132812 22.066406 242.800781 21 C 201.464844 22.066406 167.035156 36.351562 139.5 63.851562 C 112 91.382812 97.714844 125.816406 96.648438 167.148438 L 97.449219 167.148438 "/>
    <path style="stroke:none;fill-rule:evenodd;fill:rgb(20.000000%,20.000000%,20.000000%);fill-opacity:1" d="M 359.699219 167.148438 L 359.699219 149.75 L 343.101562 149.75 L 343.101562 117.101562 L 325.449219 117.101562 L 325.449219 135.699219 L 304.199219 135.699219 L 304.199219 50.101562 L 276.898438 35.25 L 276.898438 139.898438 L 268.800781 139.898438 L 268.800781 67.949219 L 264.199219 67.949219 L 264.199219 61.5 L 246.648438 61.5 L 246.648438 67.949219 L 242.050781 67.949219 L 242.050781 107.699219 L 223.648438 107.699219 L 223.648438 76.601562 L 213.898438 76.601562 L 196.351562 89.050781 L 196.351562 138 L 186.398438 138 L 186.398438 126.199219 L 178.351562 126.199219 L 178.351562 84.75 L 156.449219 84.75 L 156.449219 143.800781 L 150.800781 143.800781 L 150.800781 107.699219 L 132.351562 117.101562 L 132.351562 149.75 L 125.949219 149.75 L 125.949219 167.148438 L 359.699219 167.148438 "/>
    <path style="stroke:none;fill-rule:evenodd;fill:rgb(94.509804%,36.078431%,15.294118%);fill-opacity:1" d="M 335.601562 68.601562 L 332.300781 72.5 L 321.101562 85.75 C 320.464844 84.148438 319.082031 82.984375 316.949219 82.25 C 313.550781 81.515625 311.332031 82.332031 310.300781 84.699219 C 309.867188 87.265625 311.285156 89.167969 314.550781 90.398438 C 317.285156 91.035156 319.332031 90.550781 320.699219 88.949219 L 333.851562 73.398438 L 349.800781 83.101562 L 338.648438 96.300781 C 337.984375 94.667969 336.601562 93.5 334.5 92.800781 C 331.101562 92.035156 328.882812 92.851562 327.851562 95.25 C 327.417969 97.785156 328.832031 99.667969 332.101562 100.898438 C 334.832031 101.566406 336.867188 101.082031 338.199219 99.449219 L 338.25 99.5 L 351.300781 84 L 355.148438 79.5 L 336.148438 68 L 335.601562 68.601562 "/>
    <path style="stroke:none;fill-rule:evenodd;fill:rgb(94.509804%,36.078431%,15.294118%);fill-opacity:1" d="M 88 132.851562 L 92.648438 134.851562 L 108.648438 141.75 C 107.285156 142.816406 106.566406 144.464844 106.5 146.699219 C 106.765625 150.167969 108.199219 152.050781 110.800781 152.351562 C 113.367188 152.015625 114.75 150.117188 114.949219 146.648438 C 114.816406 143.851562 113.765625 142.035156 111.800781 141.199219 L 93.101562 133.148438 L 97.699219 115.050781 L 113.550781 121.851562 C 112.183594 122.949219 111.484375 124.617188 111.449219 126.851562 C 111.714844 130.316406 113.132812 132.199219 115.699219 132.5 C 118.300781 132.167969 119.699219 130.265625 119.898438 126.800781 C 119.734375 123.964844 118.683594 122.148438 116.75 121.351562 L 116.75 121.300781 L 98.148438 113.351562 L 92.699219 111 L 87.25 132.550781 L 88 132.851562 "/>
    <path style="stroke:none;fill-rule:evenodd;fill:rgb(94.509804%,36.078431%,15.294118%);fill-opacity:1" d="M 227.148438 37.050781 L 205.648438 40.449219 L 205.648438 38.25 L 227.148438 34.851562 L 227.148438 37.050781 M 203.601562 34.550781 L 203.601562 60.699219 C 201.832031 59.765625 199.734375 59.785156 197.300781 60.75 C 193.699219 62.617188 192.332031 65.015625 193.199219 67.949219 C 194.765625 70.515625 197.464844 71.117188 201.300781 69.75 C 204.199219 68.285156 205.648438 66.316406 205.648438 63.851562 L 205.648438 45.449219 L 227.148438 42.050781 L 227.148438 56.851562 C 225.351562 55.917969 223.234375 55.933594 220.800781 56.898438 C 217.234375 58.765625 215.882812 61.148438 216.75 64.050781 C 218.285156 66.648438 220.964844 67.265625 224.800781 65.898438 C 227.734375 64.433594 229.183594 62.464844 229.148438 60 L 229.199219 60 L 229.199219 29.550781 L 203.601562 33.601562 L 203.601562 34.550781 "/>
    <path style="stroke:none;fill-rule:evenodd;fill:rgb(94.509804%,36.078431%,15.294118%);fill-opacity:1" d="M 329.050781 32.25 L 315.851562 27.25 L 316.601562 26.050781 L 329.75 31.050781 L 329.050781 32.25 M 316.648438 23.25 L 315.300781 25.550781 L 314.601562 26.800781 L 313 29.601562 L 308.199219 38 C 307.5 36.898438 306.300781 36.234375 304.601562 36 C 302 35.898438 300.464844 36.800781 300 38.699219 C 300.066406 40.667969 301.382812 41.882812 303.949219 42.351562 C 306.082031 42.449219 307.535156 41.816406 308.300781 40.449219 L 308.351562 40.449219 L 314.25 30.050781 L 327.449219 35.050781 L 322.648438 43.398438 C 321.984375 42.300781 320.800781 41.632812 319.101562 41.398438 C 316.464844 41.300781 314.933594 42.199219 314.5 44.101562 C 314.535156 46.101562 315.851562 47.316406 318.449219 47.75 C 320.550781 47.882812 322 47.25 322.800781 45.851562 L 328.699219 35.550781 L 330.300781 32.75 L 331 31.5 L 332.648438 28.699219 L 316.949219 22.75 L 316.648438 23.25 "/>
    <path style="stroke:none;fill-rule:evenodd;fill:rgb(94.509804%,36.078431%,15.294118%);fill-opacity:1" d="M 138.050781 82 L 129.75 92.550781 L 128.851562 91.550781 L 137.101562 81 L 138.050781 82 M 126.351562 90.699219 L 128.050781 92.550781 L 128.949219 93.550781 L 131.050781 95.800781 L 137.300781 102.550781 C 136.101562 102.882812 135.148438 103.765625 134.449219 105.199219 C 133.617188 107.566406 134.015625 109.234375 135.648438 110.199219 C 137.417969 110.699219 138.882812 109.851562 140.050781 107.648438 C 140.75 105.75 140.582031 104.25 139.550781 103.148438 L 131.851562 94.800781 L 140.101562 84.25 L 146.351562 90.949219 C 145.117188 91.285156 144.167969 92.167969 143.5 93.601562 C 142.667969 95.964844 143.050781 97.632812 144.648438 98.601562 C 146.449219 99.101562 147.917969 98.25 149.050781 96.050781 C 149.785156 94.148438 149.617188 92.648438 148.550781 91.550781 L 148.601562 91.550781 L 140.898438 83.25 L 138.800781 81 L 137.898438 80 L 135.800781 77.75 L 125.949219 90.300781 L 126.351562 90.699219 "/>
    <path style="stroke:none;fill-rule:evenodd;fill:rgb(94.509804%,36.078431%,15.294118%);fill-opacity:1" d="M 393.199219 134.851562 C 393.132812 134.683594 393.066406 133.683594 393 131.851562 C 392.933594 130.015625 393.167969 128.332031 393.699219 126.800781 L 392.398438 125.601562 L 375.101562 144.101562 C 374.566406 142.433594 373.25 141.199219 371.148438 140.398438 C 367.785156 139.5 365.535156 140.214844 364.398438 142.550781 C 363.832031 145.082031 365.148438 147.035156 368.351562 148.398438 C 371.050781 149.199219 373.117188 148.816406 374.550781 147.25 L 387.75 133.148438 C 388.417969 133.816406 389.050781 136.484375 389.648438 141.148438 C 390.25 145.816406 386.832031 148.449219 379.398438 149.050781 C 380.199219 149.617188 382.949219 149.601562 387.648438 149 C 392.382812 148.367188 394.234375 143.648438 393.199219 134.851562 "/>
    <path style="stroke:none;fill-rule:evenodd;fill:rgb(94.509804%,36.078431%,15.294118%);fill-opacity:1" d="M 259.851562 13.5 C 258.984375 13 257.785156 11.484375 256.25 8.949219 L 255 8.898438 L 254.5 27.199219 C 253.398438 26.566406 252.082031 26.535156 250.550781 27.101562 C 248.316406 28.199219 247.433594 29.648438 247.898438 31.449219 C 248.832031 33.117188 250.5 33.550781 252.898438 32.75 C 254.734375 31.882812 255.667969 30.683594 255.699219 29.148438 L 256.101562 15.199219 C 256.765625 15.265625 258.382812 16.417969 260.949219 18.648438 C 263.515625 20.882812 262.917969 23.933594 259.148438 27.800781 C 259.882812 27.734375 261.367188 26.398438 263.601562 23.800781 C 265.867188 21.199219 264.617188 17.765625 259.851562 13.5 "/>
    <path style="stroke:none;fill-rule:evenodd;fill:rgb(94.509804%,36.078431%,15.294118%);fill-opacity:1" d="M 165.800781 40.398438 C 164.632812 40.300781 163.234375 40.351562 161.601562 40.550781 C 160.5 40.785156 158.398438 40.5 155.300781 39.699219 L 154.949219 39.25 C 155.25 39.050781 156.734375 38.714844 159.398438 38.25 C 162.066406 37.785156 164.199219 38.5 165.800781 40.398438 M 157.148438 35.101562 C 156.082031 35.332031 153.984375 35.050781 150.851562 34.25 L 149.5 35.351562 L 165.5 55 C 163.765625 55.332031 162.351562 56.484375 161.25 58.449219 C 159.917969 61.617188 160.316406 63.933594 162.449219 65.398438 C 164.917969 66.300781 167.035156 65.265625 168.800781 62.300781 C 169.964844 59.699219 169.882812 57.601562 168.550781 56 L 168.550781 55.949219 L 159.398438 44.699219 C 160.035156 44.234375 162.25 43.882812 166.050781 43.648438 C 169.851562 43.417969 171.382812 46.25 170.648438 52.148438 C 170.984375 51.785156 171.417969 50.117188 171.949219 47.148438 C 172.484375 44.183594 171.015625 42.035156 167.550781 40.699219 C 168.117188 36.667969 164.648438 34.800781 157.148438 35.101562 "/>
    <path style="stroke:none;fill-rule:evenodd;fill:rgb(94.509804%,36.078431%,15.294118%);fill-opacity:1" d="M 380.5 102.898438 C 380.566406 101.734375 380.484375 100.351562 380.25 98.75 C 379.949219 97.648438 380.132812 95.535156 380.800781 92.398438 L 381.25 92.050781 C 381.484375 92.316406 381.882812 93.785156 382.449219 96.449219 C 383.015625 99.117188 382.367188 101.265625 380.5 102.898438 M 385.5 94.101562 C 385.199219 93.035156 385.398438 90.917969 386.101562 87.75 L 384.949219 86.449219 L 365.949219 103.199219 C 365.550781 101.464844 364.351562 100.101562 362.351562 99.101562 C 359.082031 97.867188 356.765625 98.351562 355.398438 100.550781 C 354.601562 103.050781 355.734375 105.132812 358.800781 106.800781 C 361.398438 107.832031 363.484375 107.648438 365.050781 106.25 L 365.101562 106.300781 L 375.949219 96.699219 C 376.484375 97.300781 376.933594 99.5 377.300781 103.300781 C 377.667969 107.101562 374.898438 108.734375 369 108.199219 C 369.367188 108.535156 371.035156 108.917969 374 109.351562 C 377 109.75 379.101562 108.199219 380.300781 104.699219 C 384.332031 105.101562 386.066406 101.566406 385.5 94.101562 "/>
  </g>
  <g id="surface4">
    <text style="fill:rgb(0,42,70)" font-family="Helvetica" font-size="50" transform="matrix(0.9764309764309764,0,0,0.9764309764309764,138.45117845117846,50.96296296296296)" xml:space="preserve"><![CDATA[Lake City]]></text>
    <text style="fill:rgb(0,42,70)" font-family="Helvetica" font-size="35" transform="matrix(0.9764309764309764,0,0,0.9764309764309764,36.9023569023569,274.3164983164983)" xml:space="preserve"><![CDATA[LakeCityBingoKaraoke.org]]></text>
    <text style="fill:rgb(0,42,70)" font-family="Helvetica" font-size="35" transform="matrix(0.6254874867831289,0,0,0.6254874867831289,99.38885301344655,75.76072470922887)" xml:space="preserve"><![CDATA[For Kids, Pets and Neighbors]]></text>
  </g>
</svg>